<svg xmlns="http://www.w3.org/2000/svg" viewBox="0 0 900 620">
<defs>
<linearGradient id="bg" x1="0" y1="0" x2="1" y2="1"><stop stop-color="#102f46"/><stop offset="1" stop-color="#06121d"/></linearGradient>
<linearGradient id="gold" x1="0" x2="1"><stop stop-color="#b98d3d"/><stop offset="1" stop-color="#efd38d"/></linearGradient>
</defs>
<rect width="900" height="620" rx="42" fill="url(#bg)"/>
<circle cx="760" cy="120" r="150" fill="#d8b46a" opacity=".08"/>
<circle cx="130" cy="500" r="210" fill="#4c83a5" opacity=".08"/>
<!-- desk -->
<rect x="80" y="470" width="740" height="28" rx="10" fill="#b58b55"/>
<rect x="125" y="498" width="25" height="90" fill="#6f4f2e"/><rect x="750" y="498" width="25" height="90" fill="#6f4f2e"/>
<!-- laptop -->
<path d="M540 290l205 0 42 150H498z" fill="#172a39" stroke="#d8b46a" stroke-width="4"/>
<rect x="550" y="305" width="185" height="118" rx="7" fill="#071827"/>
<path d="M562 390c22-80 40 50 61-30s40 65 61-20 37 25 52-16" fill="none" stroke="#d8b46a" stroke-width="4"/>
<path d="M480 443h285l35 27H445z" fill="#a9b6bf"/>
<!-- person -->
<circle cx="330" cy="210" r="62" fill="#c98f6a"/>
<path d="M270 205c-8-55 25-92 74-80 35 9 52 39 43 70-20-17-55-25-93 10z" fill="#252b32"/>
<path d="M260 310c20-60 120-60 145 0l28 145H230z" fill="#dfe6eb"/>
<path d="M285 310l48 60 48-60 22 145H265z" fill="#17364b"/>
<!-- chest sensor -->
<path d="M274 335c40 15 81 15 120 0" fill="none" stroke="#263946" stroke-width="15"/>
<circle cx="395" cy="350" r="9" fill="#d8b46a"/>
<!-- arms/hands -->
<path d="M260 340l-58 105 60 18 46-93M405 340l80 100-48 25-75-92" fill="#dfe6eb"/>
<circle cx="205" cy="445" r="18" fill="#c98f6a"/><circle cx="484" cy="440" r="18" fill="#c98f6a"/>
<!-- sensors -->
<path d="M205 445c100 35 170 35 279-5" fill="none" stroke="#d8b46a" stroke-width="3" stroke-dasharray="8 8"/>
<text x="70" y="80" fill="#fff" font-family="Arial,sans-serif" font-size="28" font-weight="700" letter-spacing="4">EVALUACIÓN PROFESIONAL</text>
</svg>